Normalized EMG Linear Envelopes
nRows=140
nColumns=4

endheader
time	 med_gas_r	  soleus_r	 tib_ant_r	
2.93448	  0.008151	  0.042280	  0.002171	
3.00605	  0.008733	  0.042081	  0.002267	
3.07762	  0.008433	  0.041277	  0.002342	
3.14919	  0.007725	  0.040812	  0.002395	
3.22077	  0.007304	  0.039876	  0.002482	
3.29234	  0.007428	  0.037473	  0.002637	
3.36391	  0.008030	  0.034720	  0.002913	
3.43548	  0.009063	  0.035648	  0.003288	
3.50706	  0.009799	  0.038283	  0.003306	
3.57863	  0.009700	  0.040199	  0.002925	
3.6502	  0.009010	  0.041314	  0.002566	
3.72177	  0.008325	  0.039956	  0.002322	
3.79335	  0.008220	  0.038586	  0.002201	
3.86492	  0.008666	  0.039003	  0.002210	
3.93649	  0.009092	  0.041774	  0.002294	
4.00806	  0.009190	  0.043718	  0.002378	
4.07964	  0.008975	  0.044315	  0.002417	
4.15121	  0.008645	  0.043411	  0.002379	
4.22278	  0.008481	  0.042817	  0.002322	
4.29435	  0.008370	  0.042985	  0.002292	
4.36593	  0.008267	  0.044093	  0.002257	
4.4375	  0.008229	  0.044370	  0.002225	
4.50907	  0.008284	  0.044321	  0.002183	
4.58065	  0.008365	  0.043287	  0.002134	
4.65222	  0.008260	  0.042277	  0.002127	
4.72379	  0.008056	  0.041489	  0.002172	
4.79536	  0.007959	  0.042307	  0.002240	
4.86694	  0.007968	  0.043744	  0.002293	
4.93851	  0.008513	  0.044228	  0.002365	
5.01008	  0.009972	  0.042065	  0.002523	
5.08165	  0.012240	  0.039715	  0.002754	
5.15323	  0.014463	  0.037501	  0.002879	
5.2248	  0.016453	  0.035464	  0.002731	
5.29637	  0.015252	  0.033139	  0.002463	
5.36794	  0.010211	  0.030440	  0.002211	
5.43952	  0.004744	  0.032191	  0.002227	
5.51109	  0.002092	  0.047640	  0.003005	
5.58266	  0.007474	  0.091579	  0.005158	
5.65423	  0.029706	  0.172158	  0.008822	
5.72581	  0.077410	  0.269729	  0.012668	
5.79738	  0.151616	  0.343637	  0.014748	
5.86895	  0.237888	  0.369670	  0.015440	
5.94052	  0.328466	  0.367970	  0.016158	
6.0121	  0.414443	  0.364738	  0.017773	
6.08367	  0.464746	  0.349083	  0.020060	
6.15524	  0.474778	  0.316263	  0.022561	
6.22681	  0.476743	  0.299008	  0.025810	
6.29839	  0.498210	  0.318176	  0.028518	
6.36996	  0.546488	  0.370743	  0.029822	
6.44153	  0.584527	  0.423251	  0.031078	
6.5131	  0.580491	  0.438416	  0.031874	
6.58468	  0.561410	  0.432636	  0.032566	
6.65625	  0.546941	  0.432118	  0.033772	
6.72782	  0.552689	  0.448207	  0.035269	
6.7994	  0.572995	  0.480315	  0.036344	
6.87097	  0.587671	  0.516732	  0.037130	
6.94254	  0.594024	  0.541794	  0.038507	
7.01411	  0.606805	  0.533864	  0.040039	
7.08569	  0.611832	  0.503711	  0.040679	
7.15726	  0.598126	  0.466370	  0.040429	
7.22883	  0.570716	  0.430065	  0.040881	
7.3004	  0.553574	  0.414862	  0.042537	
7.37198	  0.555343	  0.416483	  0.043879	
7.44355	  0.560339	  0.419219	  0.043353	
7.51512	  0.561531	  0.423457	  0.041780	
7.58669	  0.566847	  0.444479	  0.040264	
7.65827	  0.568221	  0.450071	  0.039330	
7.72984	  0.568476	  0.441090	  0.038510	
7.80141	  0.562494	  0.429187	  0.036628	
7.87298	  0.547122	  0.420831	  0.034662	
7.94456	  0.544013	  0.430694	  0.034447	
8.01613	  0.536962	  0.452567	  0.035117	
8.0877	  0.506243	  0.456569	  0.035809	
8.15927	  0.471798	  0.440460	  0.035912	
8.23085	  0.459581	  0.420829	  0.035365	
8.30242	  0.485888	  0.425870	  0.035275	
8.37399	  0.537109	  0.470088	  0.035862	
8.44556	  0.599643	  0.533970	  0.036463	
8.51714	  0.661693	  0.582206	  0.038093	
8.58871	  0.706094	  0.608522	  0.041573	
8.66028	  0.736523	  0.621350	  0.047817	
8.73185	  0.727735	  0.627694	  0.054511	
8.80343	  0.693428	  0.622248	  0.057302	
8.875	  0.680407	  0.622106	  0.057487	
8.94657	  0.676280	  0.635965	  0.057177	
9.01815	  0.700495	  0.665497	  0.057998	
9.08972	  0.757137	  0.698354	  0.059719	
9.16129	  0.784968	  0.709995	  0.060321	
9.23286	  0.777227	  0.704142	  0.058394	
9.30444	  0.761999	  0.668612	  0.055672	
9.37601	  0.740663	  0.618468	  0.055082	
9.44758	  0.737940	  0.572451	  0.056098	
9.51915	  0.741963	  0.558398	  0.057204	
9.59073	  0.722495	  0.585298	  0.059042	
9.6623	  0.699973	  0.632290	  0.061073	
9.73387	  0.687772	  0.680485	  0.061770	
9.80544	  0.700622	  0.713473	  0.061183	
9.87702	  0.730563	  0.718889	  0.062219	
9.94859	  0.754161	  0.715556	  0.064329	
10.0202	  0.779544	  0.707146	  0.065355	
10.0917	  0.795305	  0.697486	  0.064937	
10.1633	  0.763336	  0.672920	  0.064126	
10.2349	  0.684593	  0.621176	  0.061247	
10.3065	  0.572938	  0.538117	  0.053132	
10.378	  0.463425	  0.431639	  0.042506	
10.4496	  0.379749	  0.332567	  0.033678	
10.5212	  0.323819	  0.254755	  0.028203	
10.5927	  0.276725	  0.193720	  0.024444	
10.6643	  0.223836	  0.142273	  0.020806	
10.7359	  0.166907	  0.102972	  0.017185	
10.8075	  0.112801	  0.074614	  0.013880	
10.879	  0.070309	  0.054944	  0.011279	
10.9506	  0.044783	  0.043631	  0.009072	
11.0222	  0.028693	  0.036252	  0.007914	
11.0937	  0.018109	  0.030358	  0.007565	
11.1653	  0.012553	  0.026446	  0.008370	
11.2369	  0.009937	  0.023847	  0.009306	
11.3085	  0.009014	  0.021953	  0.010111	
11.38	  0.009141	  0.021279	  0.011720	
11.4516	  0.009590	  0.021501	  0.013480	
11.5232	  0.010026	  0.021695	  0.015181	
11.5948	  0.010408	  0.021839	  0.015726	
11.6663	  0.010449	  0.021394	  0.013210	
11.7379	  0.010164	  0.020291	  0.009734	
11.8095	  0.010086	  0.019145	  0.006759	
11.881	  0.010274	  0.018730	  0.004885	
11.9526	  0.010468	  0.019623	  0.003945	
12.0242	  0.009950	  0.024201	  0.003606	
12.0958	  0.008486	  0.033243	  0.003559	
12.1673	  0.007190	  0.043769	  0.003513	
12.2389	  0.006581	  0.048531	  0.003557	
12.3105	  0.006394	  0.044290	  0.003333	
12.3821	  0.006355	  0.034066	  0.002673	
12.4536	  0.006686	  0.025433	  0.002145	
12.5252	  0.007014	  0.020940	  0.001901	
12.5968	  0.006992	  0.020127	  0.001852	
12.6683	  0.006853	  0.022412	  0.001840	
12.7399	  0.006777	  0.025974	  0.001820	
12.8115	  0.006838	  0.028375	  0.001763	
12.8831	  0.007261	  0.029149	  0.001699	
